<svg width="96" height="91" xmlns="http://www.w3.org/2000/svg"
    xmlns:xlink="http://www.w3.org/1999/xlink" xml:space="preserve" overflow="hidden">
    <g transform="translate(-162 -1054)">
        <path d="M176.5 1106C176.5 1086.39 192.17 1070.5 211.5 1070.5 230.83 1070.5 246.5 1086.39 246.5 1106 246.5 1125.61 230.83 1141.5 211.5 1141.5 192.17 1141.5 176.5 1125.61 176.5 1106Z" stroke="#000000" stroke-width="6.875" stroke-miterlimit="8" fill="#FFFFFF" fill-rule="evenodd"/>
        <path d="M195 1105C195 1102.79 196.791 1101 199 1101 201.209 1101 203 1102.79 203 1105 203 1107.21 201.209 1109 199 1109 196.791 1109 195 1107.21 195 1105Z" fill-rule="evenodd"/>
        <path d="M219 1105C219 1102.79 220.791 1101 223 1101 225.209 1101 227 1102.79 227 1105 227 1107.21 225.209 1109 223 1109 220.791 1109 219 1107.21 219 1105Z" fill-rule="evenodd"/>
        <path d="M203.5 1117.5C207.5 1121.5 215.5 1121.5 219.5 1117.5" stroke="#000000" stroke-width="5.15643" stroke-linecap="round" stroke-miterlimit="8" fill="none" fill-rule="evenodd"/>
        <path d="M222.752 1067.31 233.971 1063.03 231.167 1070.48 245.004 1077.92 235.841 1079.59 246.5 1089.08 231.354 1086.66 232.663 1096.71 218.451 1090.38 213.776 1099.5 207.232 1090.94 195.638 1097.27 197.508 1088.71 178.435 1090.38 189.654 1084.24 177.5 1080.34 187.41 1077.36 178.248 1069.55 191.15 1071.22 187.597 1065.27 200.126 1066.94 203.492 1060.43 210.223 1065.83 218.264 1059.5 222.752 1067.31Z" stroke="#000000" stroke-width="6.875" stroke-miterlimit="8" fill="#FFFFFF" fill-rule="evenodd"/>
        <path d="M187.5 1078.5C187.5 1071.87 198.021 1066.5 211 1066.5 223.979 1066.5 234.5 1071.87 234.5 1078.5 234.5 1085.13 223.979 1090.5 211 1090.5 198.021 1090.5 187.5 1085.13 187.5 1078.5Z" stroke="#000000" stroke-width="6.875" stroke-miterlimit="8" fill="#FFFFFF" fill-rule="evenodd"/>
    </g>
</svg>